<?xml version="1.0" standalone="no"?>
<!DOCTYPE svg PUBLIC "-//W3C//DTD SVG 20010904//EN"
 "http://www.w3.org/TR/2001/REC-SVG-20010904/DTD/svg10.dtd">
<svg version="1.0" xmlns="http://www.w3.org/2000/svg"
 width="3000.000000pt" height="3000.000000pt" viewBox="0 0 3000.000000 3000.000000"
 preserveAspectRatio="xMidYMid meet">

<g transform="translate(0.000000,3000.000000) scale(0.100000,-0.100000)"
fill="#172554" stroke="none">
<path d="M2 22653 c1 -4042 3 -7305 5 -7253 4 159 33 665 48 840 237 2805
1240 5460 2913 7710 458 616 859 1078 1431 1651 395 394 667 644 1031 945
1710 1415 3701 2430 5845 2979 802 206 1503 326 2415 415 125 12 755 49 895
53 61 1 -3196 4 -7237 5 l-7348 2 2 -7347z"/>
<path d="M15415 29993 c140 -4 770 -41 895 -53 1040 -101 1902 -261 2810 -521
2009 -575 3888 -1570 5485 -2903 671 -560 1381 -1273 1936 -1941 589 -711
1117 -1484 1583 -2320 149 -268 456 -885 581 -1170 196 -445 411 -1002 536
-1389 166 -514 286 -948 379 -1366 22 -102 49 -223 59 -270 18 -81 46 -224 90
-465 118 -643 198 -1445 224 -2235 2 -47 4 3228 5 7278 l2 7362 -7347 -2
c-4042 -1 -7298 -4 -7238 -5z"/>
<path d="M14325 28489 c-1763 -96 -3423 -506 -5003 -1236 -206 -94 -620 -304
-805 -407 l-138 -76 -1082 0 -1082 0 -78 -78 -77 -77 0 -746 0 -746 -133 -119
c-300 -269 -797 -775 -1093 -1114 -926 -1060 -1697 -2285 -2248 -3573 -634
-1484 -994 -3047 -1076 -4675 -13 -262 -13 -1022 0 -1284 122 -2433 875 -4749
2198 -6763 529 -806 1058 -1454 1756 -2150 401 -401 711 -679 1109 -997 1815
-1449 3972 -2405 6267 -2778 398 -64 848 -116 1280 -147 352 -25 1408 -25
1760 0 1190 85 2302 304 3379 663 687 230 1279 479 1916 806 127 66 271 139
322 164 l92 46 1103 -146 c607 -81 1113 -149 1126 -152 27 -5 26 -7 -63 -75
-155 -118 -528 -370 -815 -549 -710 -443 -1511 -853 -2276 -1164 -320 -129
-727 -280 -968 -357 -536 -172 -955 -288 -1371 -380 -99 -22 -218 -48 -265
-58 -81 -18 -224 -46 -465 -90 -424 -78 -1112 -162 -1555 -190 -137 -9 -500
-27 -695 -34 -38 -2 3243 -4 7293 -5 l7362 -2 -2 7363 c-1 4049 -3 7324 -5
7277 -26 -790 -106 -1592 -224 -2235 -44 -241 -72 -384 -90 -465 -10 -47 -37
-168 -59 -270 -91 -409 -207 -830 -379 -1366 -301 -940 -807 -2050 -1353
-2969 -663 -1115 -1458 -2125 -2394 -3045 -274 -269 -623 -585 -634 -573 -10
9 -37 59 -277 498 -99 182 -239 444 -312 583 l-132 253 293 288 c292 287 498
504 723 761 1451 1656 2478 3645 2984 5785 179 754 288 1492 343 2315 17 262
18 1347 0 1600 -35 517 -82 926 -157 1385 -377 2302 -1340 4459 -2804 6280
-569 708 -1243 1389 -1956 1976 -1051 865 -2303 1604 -3563 2103 -1326 525
-2656 827 -4102 932 -252 18 -1319 27 -1575 13z m-4170 -5804 c-2078 -2082
-3782 -3785 -3786 -3785 -5 0 -9 1703 -9 3785 l0 3785 3786 0 3786 0 -3777
-3785z m5815 2605 c2190 -76 3956 -600 5226 -1551 372 -278 741 -634 1020
-985 257 -323 495 -706 660 -1066 62 -135 189 -444 196 -479 2 -10 -1717
-1739 -4746 -4772 l-4749 -4757 -759 0 -758 0 0 -758 0 -757 -2384 -2390
-2385 -2390 0 6190 0 6190 3760 3768 3761 3767 436 0 c241 0 565 -5 722 -10z
m7466 -6540 c-5 -462 -10 -576 -47 -915 -136 -1282 -555 -2313 -1309 -3225
-129 -156 -496 -523 -655 -656 -448 -372 -1017 -736 -1587 -1014 l-177 -86
2145 -4089 c2538 -4839 2338 -4461 2668 -5060 145 -264 263 -481 262 -482 -2
-2 -5640 748 -5642 751 -1 0 -839 1659 -1863 3685 l-1862 3685 713 715 c392
394 2205 2209 4028 4034 l3315 3317 8 -102 c5 -57 6 -308 3 -558z m-10449
-14777 c-2 -2 -1199 -2 -2660 -1 l-2656 3 2657 2664 2657 2664 3 -2663 c1
-1465 1 -2665 -1 -2667z"/>
<path d="M12060 18485 l0 -3105 1793 0 c1784 0 1977 3 2247 35 757 91 1343
360 1795 826 450 464 711 1095 776 1876 15 185 6 701 -15 883 -125 1058 -637
1837 -1481 2250 -329 162 -651 251 -1135 317 -113 15 -311 17 -2052 20 l-1928
4 0 -3106z"/>
<path d="M2 7348 l-2 -7348 7363 2 c4049 1 7331 3 7292 5 -481 18 -777 37
-1105 69 -627 61 -1168 147 -1792 285 -355 78 -792 191 -1043 269 -33 10 -121
37 -195 60 -1113 346 -2241 854 -3251 1463 -460 276 -802 506 -1234 829 -619
461 -1080 861 -1645 1427 -467 467 -803 845 -1181 1326 -855 1090 -1548 2280
-2087 3586 -470 1137 -813 2419 -982 3665 -63 464 -121 1172 -133 1604 -2 58
-4 -3201 -5 -7242z"/>
</g>
</svg>
